<mxfile host="app.diagrams.net" modified="2024-03-14T02:19:30.686Z" agent="Mozilla/5.0 (Windows NT 10.0; Win64; x64) AppleWebKit/537.36 (KHTML, like Gecko) Chrome/94.0.4606.71 Safari/537.36 Core/1.94.232.400 QQBrowser/12.3.5573.400" version="24.0.6" etag="zX_5r4A4XZktIyHcj0v0" type="github">
  <diagram name="第 1 页" id="0wWTKNRo8u0FaW16YQ0e">
    <mxGraphModel>
      <root>
        <mxCell id="0" />
        <mxCell id="1" parent="0" />
      </root>
    </mxGraphModel>
  </diagram>
</mxfile>
